<svg width="50" height="52" viewBox="0 0 50 52" fill="none" xmlns="http://www.w3.org/2000/svg">
<path d="M9.29004 12.5854H42.7993C43.4783 12.5855 44.1497 12.7405 44.7704 13.0404C45.391 13.3403 45.947 13.7785 46.4026 14.3268C46.8582 14.8751 47.2032 15.5213 47.4155 16.2237C47.6278 16.9261 47.7025 17.6691 47.635 18.4049L46.177 34.2835C46.0571 35.5895 45.4958 36.8004 44.6023 37.6812C43.7087 38.5619 42.5465 39.0497 41.3413 39.0497H18.1351C17.0112 39.0502 15.9219 38.6264 15.0526 37.8505C14.1833 37.0746 13.5878 35.9946 13.3675 34.7943L9.29004 12.5854Z" stroke="#333F47" stroke-width="3" stroke-linejoin="round"/>
<path d="M9.28991 12.5857L7.32163 4.00334C7.19 3.43106 6.88655 2.9231 6.4595 2.56013C6.03244 2.19716 5.50627 2.00002 4.96456 2H2M16.5798 49.6357H21.4398M36.0196 49.6357H40.8795" stroke="#333F47" stroke-width="3" stroke-linecap="round" stroke-linejoin="round"/>
</svg>
