<svg width="46" height="48" viewBox="0 0 46 48" fill="none" xmlns="http://www.w3.org/2000/svg">
<path fill-rule="evenodd" clip-rule="evenodd" d="M22.8295 45.2539C34.1769 45.2539 43.376 35.6565 43.376 23.8178C43.376 11.9792 34.1769 2.38178 22.8295 2.38178C11.4821 2.38178 2.28295 11.9792 2.28295 23.8178C2.28295 35.6565 11.4821 45.2539 22.8295 45.2539ZM22.8295 47.6357C35.4382 47.6357 45.6589 36.9724 45.6589 23.8178C45.6589 10.6632 35.4382 0 22.8295 0C10.2208 0 0 10.6632 0 23.8178C0 36.9724 10.2208 47.6357 22.8295 47.6357Z" fill="#333F47"/>
<path d="M9.13177 37.6673C9.13177 36.4371 10.013 35.3975 11.1864 35.2617C19.9929 34.2447 25.706 34.3364 34.493 35.2843C34.9318 35.3324 35.3477 35.5127 35.6899 35.8034C36.032 36.094 36.2857 36.4822 36.4198 36.9208C36.554 37.3593 36.5628 37.8291 36.4452 38.2727C36.3276 38.7164 36.0888 39.1147 35.7578 39.4191C25.3875 48.8498 19.461 48.72 9.86232 39.4286C9.39431 38.9761 9.13177 38.333 9.13177 37.6685V37.6673Z" fill="#333F47"/>
<path fill-rule="evenodd" clip-rule="evenodd" d="M34.3755 36.4683C25.6581 35.5275 20.0272 35.4394 11.3109 36.4457C11.024 36.4805 10.7595 36.6246 10.568 36.8503C10.3766 37.0759 10.2716 37.3673 10.2733 37.6687C10.2733 38.0093 10.4091 38.332 10.6386 38.5559C15.3962 43.1599 19.001 45.2404 22.5247 45.2535C26.061 45.2666 29.8598 43.2028 35.0079 38.5226C35.1714 38.3707 35.2892 38.1725 35.3468 37.9522C35.4044 37.7318 35.3994 37.4987 35.3324 37.2812C35.2654 37.0637 35.1393 36.8712 34.9695 36.7271C34.7996 36.583 34.5932 36.4935 34.3755 36.4695V36.4683ZM11.0609 34.0782C19.9598 33.0504 25.7562 33.1433 34.6118 34.0996C35.2719 34.1715 35.8976 34.4426 36.4123 34.8798C36.927 35.317 37.3083 35.9012 37.5097 36.561C37.711 37.2208 37.7235 37.9276 37.5458 38.5947C37.368 39.2619 37.0077 39.8605 36.5089 40.3172C31.2867 45.0665 26.9376 47.6531 22.5179 47.6353C18.0855 47.6186 13.9283 44.9879 9.08729 40.3018C8.74068 39.9649 8.46438 39.5572 8.27564 39.1039C8.08689 38.6507 7.98977 38.1617 7.99033 37.6675C7.98867 36.7796 8.30105 35.9223 8.86763 35.2598C9.43421 34.5972 10.2152 34.1761 11.0609 34.077V34.0782Z" fill="#333F47"/>
<path d="M31.9613 19.0541C31.9613 21.5809 30.9992 24.0041 29.2866 25.7908C27.5741 27.5775 25.2514 28.5813 22.8295 28.5813C20.4076 28.5813 18.0849 27.5775 16.3723 25.7908C14.6598 24.0041 13.6977 21.5809 13.6977 19.0541C13.6977 16.5274 14.6598 14.1041 16.3723 12.3174C18.0849 10.5307 20.4076 9.52698 22.8295 9.52698C25.2514 9.52698 27.5741 10.5307 29.2866 12.3174C30.9992 14.1041 31.9613 16.5274 31.9613 19.0541Z" fill="#333F47"/>
<path fill-rule="evenodd" clip-rule="evenodd" d="M22.8295 26.1995C24.6459 26.1995 26.3879 25.4467 27.6723 24.1066C28.9567 22.7666 29.6783 20.9492 29.6783 19.0541C29.6783 17.159 28.9567 15.3416 27.6723 14.0016C26.3879 12.6616 24.6459 11.9088 22.8295 11.9088C21.0131 11.9088 19.271 12.6616 17.9866 14.0016C16.7022 15.3416 15.9806 17.159 15.9806 19.0541C15.9806 20.9492 16.7022 22.7666 17.9866 24.1066C19.271 25.4467 21.0131 26.1995 22.8295 26.1995ZM22.8295 28.5813C25.2514 28.5813 27.5741 27.5775 29.2866 25.7908C30.9992 24.0041 31.9613 21.5809 31.9613 19.0541C31.9613 16.5274 30.9992 14.1041 29.2866 12.3174C27.5741 10.5307 25.2514 9.52698 22.8295 9.52698C20.4076 9.52698 18.0849 10.5307 16.3723 12.3174C14.6598 14.1041 13.6977 16.5274 13.6977 19.0541C13.6977 21.5809 14.6598 24.0041 16.3723 25.7908C18.0849 27.5775 20.4076 28.5813 22.8295 28.5813Z" fill="#333F47"/>
</svg>
